<svg id="visual" viewBox="0 0 1280 720" width="1280" height="720" xmlns="http://www.w3.org/2000/svg" xmlns:xlink="http://www.w3.org/1999/xlink" version="1.1"><rect x="0" y="0" width="1280" height="720" fill="#dddddd"></rect><path d="M0 479L30.5 482.7C61 486.3 122 493.7 183 498.7C244 503.7 305 506.3 366 499.5C427 492.7 488 476.3 548.8 475.3C609.7 474.3 670.3 488.7 731.2 500.5C792 512.3 853 521.7 914 509.3C975 497 1036 463 1097 451.7C1158 440.3 1219 451.7 1249.5 457.3L1280 463L1280 721L1249.5 721C1219 721 1158 721 1097 721C1036 721 975 721 914 721C853 721 792 721 731.2 721C670.3 721 609.7 721 548.8 721C488 721 427 721 366 721C305 721 244 721 183 721C122 721 61 721 30.5 721L0 721Z" fill="#87d6c5"></path><path d="M0 534L30.5 524.5C61 515 122 496 183 503C244 510 305 543 366 556.5C427 570 488 564 548.8 554.3C609.7 544.7 670.3 531.3 731.2 518C792 504.7 853 491.3 914 499C975 506.7 1036 535.3 1097 534.5C1158 533.7 1219 503.3 1249.5 488.2L1280 473L1280 721L1249.5 721C1219 721 1158 721 1097 721C1036 721 975 721 914 721C853 721 792 721 731.2 721C670.3 721 609.7 721 548.8 721C488 721 427 721 366 721C305 721 244 721 183 721C122 721 61 721 30.5 721L0 721Z" fill="#6db8a8"></path><path d="M0 600L30.5 587.8C61 575.7 122 551.3 183 546.7C244 542 305 557 366 569C427 581 488 590 548.8 588.7C609.7 587.3 670.3 575.7 731.2 572.8C792 570 853 576 914 583.3C975 590.7 1036 599.3 1097 591.7C1158 584 1219 560 1249.5 548L1280 536L1280 721L1249.5 721C1219 721 1158 721 1097 721C1036 721 975 721 914 721C853 721 792 721 731.2 721C670.3 721 609.7 721 548.8 721C488 721 427 721 366 721C305 721 244 721 183 721C122 721 61 721 30.5 721L0 721Z" fill="#539b8c"></path><path d="M0 643L30.5 635.3C61 627.7 122 612.3 183 603C244 593.7 305 590.3 366 595.8C427 601.3 488 615.7 548.8 616.7C609.7 617.7 670.3 605.3 731.2 596.7C792 588 853 583 914 589.8C975 596.7 1036 615.3 1097 617.7C1158 620 1219 606 1249.5 599L1280 592L1280 721L1249.5 721C1219 721 1158 721 1097 721C1036 721 975 721 914 721C853 721 792 721 731.2 721C670.3 721 609.7 721 548.8 721C488 721 427 721 366 721C305 721 244 721 183 721C122 721 61 721 30.5 721L0 721Z" fill="#397e71"></path><path d="M0 632L30.5 638.2C61 644.3 122 656.7 183 658C244 659.3 305 649.7 366 647C427 644.3 488 648.7 548.8 654.2C609.7 659.7 670.3 666.3 731.2 671.5C792 676.7 853 680.3 914 675.2C975 670 1036 656 1097 656.2C1158 656.3 1219 670.7 1249.5 677.8L1280 685L1280 721L1249.5 721C1219 721 1158 721 1097 721C1036 721 975 721 914 721C853 721 792 721 731.2 721C670.3 721 609.7 721 548.8 721C488 721 427 721 366 721C305 721 244 721 183 721C122 721 61 721 30.5 721L0 721Z" fill="var(--primary-color)"></path></svg>